<svg
  xmlns="http://www.w3.org/2000/svg"
  viewBox="0 0 865 851"
  fill="none"
  aria-hidden="true"
>
  <path
    d="M 557.0 443.0 L 462.0 538.0 L 459.0 546.0 L 459.0 552.0 L 462.0 560.0 L 471.0 569.0 L 479.0 571.0 L 489.0 570.0 L 496.0 573.0 L 507.0 584.0 L 556.0 663.0 L 590.0 712.0 L 630.0 759.0 L 675.0 802.0 L 686.0 810.0 L 705.0 820.0 L 720.0 825.0 L 738.0 828.0 L 768.0 826.0 L 786.0 820.0 L 809.0 805.0 L 824.0 789.0 L 837.0 766.0 L 842.0 750.0 L 844.0 736.0 L 842.0 714.0 L 836.0 696.0 L 828.0 681.0 L 808.0 654.0 L 788.0 634.0 L 749.0 600.0 L 704.0 566.0 L 640.0 525.0 L 603.0 498.0 L 593.0 488.0 L 589.0 480.0 L 589.0 457.0 L 580.0 446.0 L 569.0 440.0 Z M 632.0 559.0 L 634.0 557.0 L 639.0 557.0 L 666.0 573.0 L 706.0 603.0 L 755.0 645.0 L 790.0 682.0 L 800.0 700.0 L 799.0 711.0 L 793.0 716.0 L 787.0 716.0 L 777.0 708.0 L 632.0 564.0 Z M 559.0 551.0 L 568.0 550.0 L 581.0 560.0 L 763.0 742.0 L 766.0 751.0 L 764.0 756.0 L 759.0 761.0 L 751.0 762.0 L 745.0 759.0 L 556.0 570.0 L 553.0 565.0 L 553.0 558.0 Z M 63.0 27.0 L 23.0 65.0 L 22.0 71.0 L 86.0 164.0 L 97.0 171.0 L 131.0 178.0 L 149.0 189.0 L 328.0 370.0 L 370.0 328.0 L 370.0 326.0 L 186.0 141.0 L 178.0 128.0 L 168.0 98.0 L 162.0 90.0 L 76.0 26.0 L 67.0 25.0 Z M 697.0 30.0 L 687.0 25.0 L 657.0 20.0 L 625.0 21.0 L 600.0 26.0 L 581.0 33.0 L 553.0 49.0 L 536.0 63.0 L 521.0 79.0 L 512.0 91.0 L 501.0 111.0 L 492.0 138.0 L 489.0 157.0 L 489.0 212.0 L 483.0 246.0 L 468.0 281.0 L 455.0 300.0 L 390.0 367.0 L 308.0 445.0 L 246.0 498.0 L 103.0 610.0 L 67.0 642.0 L 46.0 663.0 L 36.0 676.0 L 27.0 693.0 L 21.0 712.0 L 20.0 743.0 L 22.0 753.0 L 31.0 776.0 L 42.0 792.0 L 57.0 807.0 L 70.0 816.0 L 87.0 824.0 L 115.0 830.0 L 133.0 830.0 L 155.0 826.0 L 166.0 822.0 L 187.0 810.0 L 227.0 772.0 L 268.0 724.0 L 356.0 603.0 L 402.0 547.0 L 446.0 500.0 L 554.0 392.0 L 576.0 376.0 L 601.0 366.0 L 622.0 362.0 L 647.0 361.0 L 688.0 356.0 L 720.0 346.0 L 739.0 336.0 L 756.0 324.0 L 783.0 297.0 L 795.0 280.0 L 804.0 263.0 L 816.0 227.0 L 820.0 202.0 L 820.0 166.0 L 818.0 156.0 L 813.0 150.0 L 809.0 148.0 L 801.0 148.0 L 795.0 151.0 L 730.0 217.0 L 723.0 222.0 L 710.0 226.0 L 697.0 226.0 L 676.0 222.0 L 655.0 212.0 L 635.0 193.0 L 622.0 167.0 L 619.0 153.0 L 619.0 137.0 L 622.0 128.0 L 700.0 49.0 L 702.0 37.0 Z M 140.0 682.0 L 152.0 689.0 L 165.0 706.0 L 168.0 718.0 L 168.0 727.0 L 165.0 739.0 L 160.0 748.0 L 131.0 775.0 L 119.0 779.0 L 104.0 779.0 L 97.0 777.0 L 84.0 769.0 L 73.0 754.0 L 70.0 745.0 L 70.0 729.0 L 72.0 722.0 L 81.0 708.0 L 104.0 686.0 L 118.0 680.0 L 133.0 680.0 Z M 512.0 309.0 L 517.0 315.0 L 517.0 324.0 L 494.0 349.0 L 353.0 491.0 L 216.0 633.0 L 207.0 635.0 L 201.0 632.0 L 197.0 626.0 L 197.0 618.0 L 210.0 603.0 L 500.0 309.0 Z"
    fill="#000"
    fill-rule="evenodd"
    clip-rule="evenodd"
  />
</svg>
